P3
50 50
255
100 24 69 213 17 7 213 76 113 213 220 32 118 127 245 210 177 33 91 250 103 185 164 45 230 46 172 35 25 145 207 25 91 162 91 117 137 150 68 169 91 23 26 89 244 141 57 192 183 156 64 80 93 237 196 152 68 50 69 107 10 100 96 63 91 79 71 211 7 81 111 21 88 95 136 66 162 72 178 79 27 62 238 136 237 146 210 119 138 191 130 7 64 170 219 233 13 40 241 55 180 193 188 87 16 180 14 35 169 58 200 70 133 15 78 233 65 47 56 144 96 221 75 62 226 234 167 224 24 52 65 232 184 109 148 57 45 30 148 67 48 235 228 111 156 24 72 189 126 76 93 171 108 149 136 90 25 173 44 236 38 124 32 48 58 221 96 129 84 165 2 235 96 226 108 144 9 96 197 74 207 114 169 146 89 238 33 161 12 122 210 212 220 6 116 85 98 154 134 248 47 82 64 99 97 167 202 114 116 239 171 218 90 39 132 12 205 241 254 92 228 217 1 98 228 220 39 160 89 43 112 102 102 44 55 243 90 194 100 221 131 206 228 179 71 246 86 224 112 165 7 210 200 82 33 92 230 6 31 89 71 24 132 147 161 59 205 227 115 188 164 153 225 4 86 29 191 100 135 215 236 18 37 77 225 110 154 139 137 138 70 200 84 234 44 70 135 136 235 122 214 27 241 109 52 153 235 98 234 251 127 185 230 64 62 19 86 180 212 183 118 114 130 53 166 40 207 73 192 26 122 1 168 106 178 34 37 150 137 201 239 66 167 78 9 56 59 109 80 173 56 168 85 198 189 231 104 90 212 98 245 250 96 192 20 46 81 128 91 2 26 153 246 193 101 93 250 1 5 163 247 223 44 37 205 140 222 39 192 9 165 90 206 46 135 255 63 241 53 79 127 229 133 27 41 1 34 176 100 163 130 253 114 212 25 248 134 206 205 61 214 188 169 248 242 192 213 6 84 58 198 87 56 72 178 151 174 137 71 13 237 39 156 195 234 20 104 231 41 147 114 113 211 251 72 6 10 183 52 28 121 146 108 96 47 50 137 84 173 225 58 61 61 148 58 60 134 37 127 187 94 228 181 10 223 78 234 74 189 28 139 139 214 128 143 49 11 171 242 156 79 146 101 8 253 242 68 177 111 145 200 59 204 200 126 82 33 62 247 142 180 246 193 153 149 140 151 147 117 187 213 181 187 35 47 53 213 73 161 106 204 224 169 49 28 71 181 143 194 82 215 152 150 77 192 143 219 62 236 78 21 107 26 232 26 28 255 142 108 162 59 175 198 152 140 99 245 105 66 10 233 19 243 48 12 42 111 181 211 31 246 42 146 194 169 125 148 6 63 217 107 4 249 200 133 67 216 155 0 55 13 11 191 7 177 32 190 148 182 82 162 182 30 239 149 200 106 188 80 104 86 223 121 120 195 252 48 104 245 159 229 184 254 218 108 184 122 47 83 147 125 175 115 139 202 100 197 134 70 237 119 202 172 104 63 5 129 149 240 144 75 55 75 244 254 190 23 174 183 36 116 47 172 21 108 39 99 82 203 3 35 87 48 180 169 60 101 179 27 217 236 66 66 45 218 244 243 1 233 111 206 200 200 113 44 202 181 17 82 129 78 72 235 67 164 175 181 34 146 138 122 17 77 6 66 72 59 191 199 233 9 133 41 227 248 96 227 22 119 209 254 185 247 91 132 249 251 66 56 227 110 147 132 132 58 100 179 79 22 93 96 191 159 120 46 61 171 4 186 67 218 240 206 194 110 70 216 193 92 246 154 71 162 213 34 124 220 229 253 11 18 215 168 202 213 206 71 157 138 102 153 152 5 245 44 99 90 17 205 227 239 82 67 22 214 88 61 63 90 16 136 68 216 52 133 84 209 17 219 204 60 141 105 92 33 104 127 102 99 194 77 166 222 222 155 24 177 37 187 22 221 110 188 193 16 124 225 163 187 200 81 147 106 129 16 216 85 210 46 145 50 99 63 84 78 34 11 21 220 67 134 73 141 133 2 76 97 184 163 0 188 124 19 184 188 75 120 84 202 186 163 173 111 251 138 51 105 167 249 212 255 186 132 32 145 224 192 171 115 239 179 179 252 180 136 3 217 242 135 23 167 168 69 129 194 147 24 140 87 244 206 30 193 147 159 227 18 4 95 167 239 41 249 4 162 248 24 62 106 126 39 107 21 36 124 215 209 50 208 166 64 145 243 187 202 213 189 217 55 123 72 8 125 110 92 59 214 208 43 47 22 248 63 150 60 183 176 117 71 224 154 203 75 7 206 115 195 136 200 75 41 204 226 150 196 199 199 159 194 197 41 160 134 103 183 225 67 232 73 36 202 165 94 65 160 221 201 14 84 181 167 129 15 127 148 25 109 59 31 121 139 94 123 87 98 211 119 148 83 64 175 172 2 138 4 81 104 155 75 83 36 99 66 195 18 28 200 88 31 211 77 17 92 36 135 28 81 69 102 247 147 70 75 213 153 150 117 67 203 202 187 11 220 154 129 89 90 44 229 28 131 150 57 175 91 158 182 185 251 195 110 82 44 130 131 103 52 210 151 95 240 241 131 254 35 98 76 138 14 55 83 45 65 140 203 155 176 84 112 244 9 88 118 236 69 124 192 41 126 68 83 237 0 152 10 244 162 196 139 160 87 195 121 83 0 189 236 28 132 206 30 151 35 9 103 14 7 189 107 228 28 246 146 52 34 71 184 181 1 199 38 225 92 90 193 86 104 50 130 124 255 149 38 104 240 224 39 0 154 204 234 96 185 240 58 125 127 135 245 8 231 116 5 150 70 131 146 253 34 242 118 1 72 48 242 48 25 228 159 10 37 49 167 101 251 56 52 16 62 223 41 183 252 209 17 6 60 199 84 17 214 5 177 244 136 39 232 182 69 29 183 116 208 117 8 187 138 216 105 53 137 216 188 136 233 233 48 123 103 172 112 91 43 116 26 157 230 3 114 196 29 148 88 133 197 31 119 41 15 216 192 52 133 248 23 68 86 193 75 59 238 188 76 160 202 70 152 67 139 74 247 32 73 80 104 134 41 183 91 121 50 62 32 84 92 202 160 179 234 99 75 143 250 127 81 171 91 131 21 47 158 135 223 147 112 89 208 191 39 197 28 113 154 20 115 222 54 211 192 156 78 214 22 191 179 124 231 67 133 51 120 170 72 63 145 229 58 184 121 120 228 210 34 218 240 98 160 26 58 157 223 200 42 34 150 19 64 59 119 47 240 95 169 250 177 252 119 222 81 116 74 249 139 101 212 123 219 46 143 80 145 175 102 0 37 80 177 211 202 68 103 56 69 15 143 103 0 69 248 70 90 149 42 137 66 7 156 30 4 130 40 200 98 145 187 10 231 102 81 70 120 32 33 38 44 73 20 59 94 163 124 228 0 36 3 114 49 63 225 137 18 101 83 201 214 204 72 174 25 111 93 181 115 86 11 193 76 23 31 188 242 157 107 129 232 40 188 250 130 149 12 133 174 224 248 157 21 231 116 182 99 112 189 104 226 110 143 208 78 128 153 52 229 187 46 229 189 169 61 106 90 145 131 218 128 249 255 138 70 106 166 232 108 115 89 167 238 240 20 29 217 141 104 233 94 133 43 216 37 176 110 10 228 188 175 80 47 186 80 217 146 221 72 14 221 127 25 186 191 101 2 110 150 68 117 36 134 132 203 34 200 67 55 33 69 157 248 175 100 43 211 210 32 201 193 238 93 157 229 232 124 85 192 140 45 175 168 44 132 63 118 138 80 109 128 249 168 189 199 190 198 83 113 188 25 182 121 81 149 212 165 123 78 70 184 63 69 214 233 75 129 62 149 218 98 51 49 216 51 162 130 70 254 58 16 225 164 42 216 254 44 44 65 185 92 194 81 78 134 191 33 199 165 10 142 216 169 159 50 7 14 214 147 15 179 232 153 135 234 175 70 191 203 173 161 235 207 80 243 131 154 116 54 233 23 42 203 77 202 184 107 206 98 225 96 225 142 102 245 247 18 204 43 90 26 96 173 88 206 121 6 164 38 253 18 249 0 38 178 0 112 134 196 116 87 73 83 132 55 187 10 121 69 10 239 152 192 76 78 74 130 195 242 122 213 96 155 63 135 135 173 187 65 18 38 67 20 152 210 191 85 239 194 84 171 239 250 65 102 121 106 7 18 184 32 205 76 167 187 2 213 212 35 68 229 99 119 129 194 85 71 92 144 11 4 210 107 5 180 29 179 240 234 216 167 224 246 101 54 218 89 140 17 149 124 100 5 129 161 119 136 9 25 33 146 21 183 57 174 212 134 243 80 184 183 5 105 194 221 9 57 255 93 35 100 83 31 227 73 117 138 109 143 59 176 215 0 24 197 210 155 227 214 141 228 217 183 214 127 230 62 131 253 32 174 16 246 148 118 137 88 70 28 170 254 115 116 70 133 25 21 229 91 186 13 177 24 92 212 147 18 212 127 153 43 68 54 155 238 227 232 30 219 252 61 120 254 58 205 53 199 34 143 186 21 225 148 40 148 72 245 131 73 21 10 20 107 116 220 11 117 197 221 105 121 160 215 29 183 22 35 109 110 58 27 152 242 225 209 186 255 165 2 239 77 48 69 187 100 183 136 170 178 196 189 51 219 57 209 226 80 146 222 183 35 106 161 201 26 64 46 46 2 124 226 31 69 173 154 88 191 21 34 190 206 103 241 68 168 207 19 15 242 51 102 217 142 185 9 147 180 137 18 78 68 212 127 91 90 21 112 177 35 150 147 144 240 54 223 100 137 107 133 236 196 131 35 155 86 47 59 63 232 65 229 224 110 181 192 235 180 238 46 144 57 67 193 104 65 186 240 91 38 19 15 193 239 9 126 199 35 212 32 20 224 242 14 173 39 39 141 22 122 195 62 187 169 35 149 142 233 122 140 240 38 210 153 213 154 77 221 35 159 177 158 92 193 35 247 125 24 51 206 38 213 25 7 250 26 62 247 73 15 255 28 237 50 173 11 113 238 216 169 121 112 205 158 93 182 93 7 24 232 224 107 97 236 122 241 23 53 157 208 226 219 207 6 24 241 174 77 221 19 49 75 143 62 48 9 97 228 39 166 69 64 55 77 16 232 109 100 216 161 71 6 161 118 116 180 57 12 220 71 97 48 224 41 45 178 227 197 174 118 9 60 206 200 62 90 122 240 123 200 7 6 68 131 206 8 118 140 26 42 63 226 69 109 110 173 29 115 237 188 140 146 139 49 121 39 255 123 233 45 42 133 106 14 157 45 177 184 91 248 130 244 224 4 208 243 98 62 38 42 86 212 69 97 54 238 15 6 130 153 163 198 5 3 202 95 89 238 146 175 173 95 56 17 198 150 75 234 68 67 15 127 39 247 32 10 145 217 87 12 205 154 241 228 145 171 238 161 128 173 184 21 243 41 5 42 249 129 254 122 157 38 161 25 103 12 100 181 37 91 27 226 234 104 27 175 88 227 160 125 27 82 108 17 182 189 177 231 130 171 49 201 243 78 164 161 30 251 90 140 120 221 33 47 225 233 105 78 225 20 166 154 49 196 246 203 125 133 4 239 104 254 44 2 209 35 224 190 84 172 74 180 20 197 50 156 184 7 35 234 180 167 201 162 202 237 158 108 208 232 198 235 179 97 54 75 188 13 28 25 18 6 123 88 129 124 22 209 121 168 144 170 90 2 209 58 238 180 172 28 55 78 190 130 108 187 153 204 62 116 34 90 95 243 55 158 69 107 149 117 44 182 249 183 90 143 134 12 166 1 103 2 59 31 181 93 154 246 155 175 222 192 184 40 68 91 196 174 234 249 119 48 215 24 166 56 60 181 176 192 249 188 24 71 99 196 115 36 69 249 133 25 37 89 167 43 200 36 107 177 248 141 131 172 132 182 223 86 137 219 22 254 240 206 7 18 56 163 192 126 117 172 159 52 153 168 182 12 243 55 116 207 245 145 130 142 58 120 236 57 200 107 129 109 146 29 124 140 65 37 100 19 51 247 48 40 196 19 175 115 205 124 39 47 107 108 61 129 2 70 20 8 129 204 185 181 231 146 191 221 6 178 38 140 134 194 130 29 46 3 88 7 95 219 204 250 225 134 121 43 227 8 161 236 60 102 134 127 247 21 23 44 15 179 207 145 119 245 219 58 93 225 123 113 176 61 170 87 224 71 1 52 229 166 217 12 130 161 176 115 203 143 206 161 229 142 39 201 13 120 132 167 219 19 222 89 200 136 10 111 239 23 156 69 16 8 5 145 218 229 254 56 106 230 42 102 15 173 246 221 80 51 197 141 48 3 74 101 176 166 52 106 150 94 17 6 109 23 108 162 205 154 57 119 220 4 116 160 21 118 4 116 72 15 229 20 226 23 134 64 111 125 112 111 93 132 41 30 3 185 88 104 226 40 41 215 42 207 243 122 128 83 25 55 254 242 46 99 123 185 92 144 13 247 6 166 205 241 172 54 218 215 15 10 161 247 150 1 91 49 241 26 214 171 252 206 121 198 230 163 131 80 146 254 147 251 61 56 109 13 98 245 251 90 218 177 146 111 72 156 119 17 180 168 162 230 118 224 193 113 86 251 128 68 241 49 8 112 95 77 197 65 18 4 109 40 1 133 62 249 6 81 135 86 133 77 105 107 79 21 223 221 198 148 252 252 65 210 116 64 178 12 94 243 134 10 56 43 204 173 44 251 154 200 145 234 172 48 181 164 79 23 218 240 125 149 126 226 74 136 224 82 127 158 191 141 132 176 101 73 131 82 228 223 202 168 160 180 113 123 13 248 61 139 186 148 197 39 143 93 211 252 83 142 13 43 112 117 213 158 251 108 109 155 239 11 95 153 185 156 28 83 250 207 227 28 136 176 228 114 182 213 166 213 213 220 166 218 250 21 65 123 2 123 211 177 212 233 33 69 230 138 244 226 3 146 7 112 75 43 35 157 123 178 137 188 110 36 144 211 228 211 143 239 131 94 253 187 27 223 215 81 46 102 66 80 176 167 114 47 11 239 202 209 102 93 69 89 39 78 20 63 182 25 137 164 132 253 51 226 77 87 75 104 154 24 78 197 137 119 236 2 208 227 33 53 0 60 162 83 7 66 122 70 249 78 245 63 16 64 189 78 241 184 67 48 48 137 96 104 23 106 61 145 163 239 112 242 208 184 103 83 22 233 10 15 52 217 156 107 44 15 226 38 143 106 136 81 250 159 192 97 225 233 44 131 139 251 254 47 94 58 94 0 93 41 12 195 239 36 70 206 226 82 236 147 175 213 226 116 0 67 182 217 111 90 130 128 145 239 20 21 51 40 77 3 227 235 199 137 179 150 186 16 57 241 33 188 218 97 24 65 73 94 137 248 74 38 7 50 188 179 250 204 214 235 253 3 177 24 132 138 6 151 194 218 58 212 202 202 151 118 244 95 221 214 130 229 249 182 131 62 20 48 248 123 207 236 54 169 205 150 139 237 115 143 36 212 235 227 46 228 111 124 60 119 196 149 233 201 4 113 190 79 161 76 86 74 167 146 191 157 65 79 36 219 127 230 169 165 86 7 151 51 233 219 185 48 6 129 6 203 244 190 127 11 108 240 91 98 229 68 98 134 21 41 151 124 180 5 25 245 131 38 75 222 141 251 51 51 172 132 32 20 80 7 144 26 124 5 80 235 17 108 229 12 79 14 43 247 153 82 60 110 120 41 147 14 227 68 114 39 190 133 128 203 160 179 183 37 217 113 125 12 180 113 17 216 249 229 41 117 182 54 218 182 63 249 183 235 116 31 61 181 66 107 111 25 109 42 189 212 140 30 42 238 85 187 174 146 26 150 217 29 148 26 186 117 224 124 255 156 199 242 93 133 66 32 51 38 61 211 106 206 156 242 159 185 124 178 132 226 187 8 131 24 186 100 165 84 97 156 179 74 100 38 155 62 197 139 20 25 155 24 133 188 17 215 35 148 177 190 90 110 227 37 111 141 176 126 99 250 204 64 26 28 212 36 189 136 212 148 92 26 12 96 216 69 244 180 0 167 125 71 250 225 154 212 229 165 255 206 188 17 40 80 125 59 158 83 139 13 118 35 81 83 26 20 41 18 76 112 124 27 103 181 42 225 232 253 44 136 46 190 120 62 126 179 36 206 74 26 207 114 179 32 61 233 76 154 65 202 33 245 224 24 248 112 179 22 214 136 141 93 197 180 94 43 213 83 87 254 97 227 79 98 147 115 102 7 42 91 232 22 123 42 116 197 182 224 93 42 107 94 80 76 77 26 55 128 53 23 94 243 106 21 212 131 31 5 21 211 61 191 229 158 99 247 127 75 43 109 239 194 176 101 189 127 77 87 203 228 167 231 128 212 237 23 38 125 94 188 145 117 12 47 2 9 224 68 75 210 223 128 51 137 171 134 27 27 77 211 226 0 49 171 7 201 114 83 13 249 89 129 36 22 32 17 5 0 251 249 30 129 89 127 239 36 102 170 180 75 213 246 68 124 222 75 57 252 130 48 81 159 22 61 20 222 255 206 183 42 187 255 65 128 33 212 236 62 233 183 206 53 110 40 184 255 179 176 95 146 164 22 185 22 159 214 170 244 51 207 224 48 40 60 252 248 191 229 242 125 58 151 178 1 159 209 8 49 186 192 192 182 97 109 15 7 252 54 46 129 68 123 72 185 74 153 150 17 187 28 201 137 99 48 168 216 241 89 250 188 250 100 166 142 64 158 25 25 51 67 232 172 184 57 182 110 42 254 89 242 158 224 56 11 108 108 247 226 235 40 87 69 123 133 87 66 201 15 160 245 78 231 31 158 25 115 244 246 207 84 139 196 240 152 8 171 91 49 233 70 21 166 230 119 70 9 28 251 132 41 107 66 84 8 29 126 238 144 200 251 65 129 117 174 55 174 1 16 58 105 196 45 247 60 113 247 98 218 61 225 250 84 68 169 78 144 40 117 192 248 251 34 137 111 95 217 253 137 235 227 16 251 209 190 26 80 190 112 215 222 2 27 178 249 241 210 67 102 137 171 22 18 85 21 174 4 144 108 201 145 142 203 230 207 88 34 5 76 151 136 174 255 179 210 52 126 59 100 59 114 136 71 120 72 157 124 184 42 82 144 36 46 178 113 195 205 161 128 64 150 194 231 238 35 151 45 9 77 234 8 63 156 108 114 110 1 157 254 176 200 235 109 149 200 30 124 175 221 243 1 84 152 7 54 159 52 247 85 184 204 198 101 85 204 127 83 129 166 27 68 157 198 164 42 164 199 155 149 179 231 152 205 200 184 48 29 201 25 27 113 201 101 150 36 136 234 7 19 56 157 224 246 135 11 197 240 217 147 241 100 213 211 214 11 36 96 3 67 117 186 75 170 197 127 36 236 221 222 77 217 28 79 180 187 118 129 150 230 189 148 232 144 31 137 246 227 241 247 74 81 171 255 207 40 51 129 54 102 94 144 153 206 180 36 94 59 115 15 95 53 215 51 71 194 153 241 63 126 181 229 203 238 113 208 238 18 155 213 149 57 18 233 51 25 136 133 168 31 133 157 103 4 175 214 216 161 74 244 251 4 251 145 79 195 209 21 242 144 133 226 9 14 1 207 98 228 32 216 88 15 181 20 247 124 206 231 97 214 58 120 112 157 72 101 157 120 210 182 33 204 122 16 90 141 52 43 111 84 5 134 55 178 10 90 87 197 187 204 171 8 113 102 232 111 38 200 127 180 124 155 196 235 1 199 79 93 178 230 162 147 190 248 13 177 140 88 207 6 254 239 126 224 248 167 169 165 28 34 187 31 216 173 34 24 163 111 177 39 131 230 67 201 211 149 162 179 67 246 167 103 32 182 162 6 214 33 251 101 179 220 26 98 237 210 133 121 231 112 72 146 176 21 154 29 204 196 189 97 56 29 38 17 168 139 222 33 19 190 40 215 113 92 100 37 196 243 51 54 85 51 220 71 64 90 239 184 50 239 40 99 114 179 149 44 30 213 251 217 184 101 119 37 225 11 97 15 99 249 117 120 117 30 53 237 59 156 137 194 141 125 169 96 249 161 60 223 11 251 194 216 203 254 47 116 136 81 216 201 212 202 147 103 208 154 26 45 170 197 177 98 99 214 9 1 214 208 99 83 246 103 248 195 87 112 153 239 240 151 147 251 31 80 213 42 237 16 85 175 148 188 175 192 62 98 15 237 16 39 82 176 103 128 104 69 97 165 253 187 160 67 88 76 74 113 131 234 84 230 172 26 1 105 203 5 165 136 133 204 175 141 80 29 230 174 217 4 243 132 163 3 32 191 240 100 95 23 228 206 142 134 232 23 249 180 77 89 33 179 49 72 188 236 167 194 252 89 18 168 20 245 210 237 249 113 35 236 101 41 65 255 34 86 209 77 133 133 124 227 57 72 221 7 61 43 157 200 48 233 220 218 205 224 211 161 178 195 184 140 101 143 226 164 152 192 46 101 172 196 161 204 117 176 79 177 61 50 123 87 11 198 255 66 37 45 239 72 211 28 121 235 102 49 15 230 121 42 201 6 119 89 4 59 93 83 80 239 193 233 137 150 20 89 67 135 36 197 107 10 228 227 44 178 112 247 16 237 76 254 104 217 236 44 237 89 122 153 167 105 211 56 14 174 211 8 112 81 210 142 146 14 110 130 154 136 139 201 44 224 153 163 212 133 22 38 164 78 83 235 30 198 122 7 84 199 208 60 77 74 56 113 171 125 249 96 139 22 192 143 173 231 233 129 213 179 250 45 112 65 112 175 123 174 191 62 161 7 148 94 163 24 93 86 253 126 11 229 199 4 22 49 217 44 194 0 50 11 162 42 155 90 90 79 135 203 168 197 62 153 166 212 58 99 73 38 209 58 46 121 21 249 150 151 249 212 175 136 181 52 21 6 107 195 152 49 10 194 64 132 115 163 142 8 218 212 5 199 111 217 233 132 62 157 71 169 84 10 53 129 36 215 91 167 41 161 178 191 204 62 140 99 135 78 213 96 75 18 152 35 31 130 196 110 11 153 49 80 52 244 222 83 72 155 125 247 28 31 49 95 148 229 150 75 196 193 2 70 84 198 10 33 41 93 72 159 65 149 92 114 223 186 49 102 233 41 130 221 142 98 156 123 43 95 101 34 112 37 157 33 191 152 100 168 212 147 252 128 171 56 209 248 158 133 182 35 207 40 114 64 197 149 123 122 90 85 1 210 212 161 46 89 82 47 173 162 106 76 105 119 16 43 151 203 185 125 246 240 193 65 85 10 10 222 87 196 231 111 115 65 56 94 62 86 214 52 237 246 49 175 21 237 55 22 182 209 120 201 120 54 136 28 52 34 165 101 182 193 154 84 194 89 227 131 84 127 18 78 44 140 114 229 138 75 233 159 55 244 35 146 196 94 236 96 22 112 222 83 35 217 61 173 246 0 31 57 249 62 208 38 115 76 116 21 80 247 238 113 33 27 1 255 99 206 181 182 4 220 253 208 35 116 150 33 24 32 50 168 180 250 214 100 201 30 129 104 237 91 14 50 124 46 91 57 220 240 171 197 5 78 73 3 64 250 111 89 46 160 101 247 13 28 237 175 55 234 223 6 235 221 17 139 80 20 121 103 183 43 150 54 33 174 11 21 1 211 142 252 67 104 0 79 140 10 221 175 196 152 215 22 210 231 190 35 166 183 163 178 125 230 61 176 96 228 140 46 238 103 187 179 92 96 75 215 186 45 110 13 120 16 177 193 40 224 222 163 133 254 33 66 181 139 105 220 203 216 17 116 144 30 192 38 131 112 142 184 30 237 104 113 91 58 181 46 119 48 57 178 246 209 58 62 231 129 226 97 105 115 229 18 110 97 100 252 191 128 16 25 65 179 146 130 118 254 43 134 70 62 151 249 0 24 56 206 156 48 112 233 67 155 79 46 17 150 110 222 25 120 26 35 169 229 181 233 208 69 90 240 30 116 192 31 171 187 97 28 90 0 219 25 95 57 150 241 255 39 167 115 151 64 244 253 224 237 153 78 113 245 139 149 134 57 123 205 255 163 254 77 172 89 234 155 199 54 3 130 194 122 215 100 68 192 230 209 110 49 6 87 98 248 6 156 6 245 146 171 5 182 86 140 23 163 103 23 131 120 222 9 226 249 198 88 37 225 56 196 217 27 196 175 170 52 19 46 38 17 203 96 196 221 179 255 37 70 24 52 153 233 111 176 229 10 59 248 68 137 49 0 171 17 154 252 81 147 250 115 111 243 239 149 68 1 91 206 93 170 197 155 19 112 253 157 85 23 255 236 168 161 26 173 107 125 82 231 96 252 2 146 104 4 198 241 142 8 151 34 71 55 56 244 248 244 210 248 185 135 219 219 89 18 59 242 162 198 178 23 222 86 116 180 154 172 23 29 169 220 175 35 108 86 56 230 81 95 52 234 154 194 148 109 96 194 220 248 215 84 131 53 211 139 152 0 139 84 172 192 157 99 235 248 83 109 140 25 37 152 108 155 127 48 245 75 196 155 69 231 146 143 140 232 72 130 182 159 197 98 75 131 115 135 147 202 133 230 253 54 124 135 193 50 240 57 197 29 141 132 190 230 92 223 151 217 67 35 22 184 208 64 189 14 50 46 238 192 136 39 83 229 95 20 125 215 117 69 203 138 195 100 142 29 187 172 106 175 207 86 0 116 50 84 201 8 226 66 69 3 230 154 86 205 212 39 230 180 151 188 208 59 111 37 254 181 57 94 207 19 241 3 187 251 117 8 57 26 140 170 224 186 38 165 205 151 230 168 70 238 221 6 156 216 153 174 86 214 94 93 139 173 179 18 144 116 32 195 212 235 55 78 7 14 209 178 130 234 154 127 227 176 208 139 247 8 71 231 222 167 177 17 105 36 28 107 199 7 188 236 97 36 235 22 2 39 110 40 59 111 250 148 6 32 246 179 169 115 131 184 221 81 186 227 48 33 52 247 168 222 208 237 169 108 176 234 24 44 133 111 193 206 13 207 246 102 218 231 121 194 84 9 157 251 1 57 167 75 4 156 122 30 228 45 116 108 143 178 147 69 159 239 220 174 219 25 253 171 1 141 49 157 195 194 100 206 15 124 152 75 147 67 135 242 129 20 137 203 143 86 185 156 67 15 83 183 109 88 97 23 245 15 151 171 214 203 123 242 107 21 201 200 234 213 21 128 46 10 178 50 185 190 211 86 249 58 240 146 202 118 107 209 61 211 116 149 151 12 42 142 157 106 2 107 15 56 109 240 115 119 181 73 19 211 40 158 73 213 121 231 250 89 99 2 97 67 143 2 14 110 184 203 46 229 13 220 12 86 215 107 216 195 91 183 168 123 2 154 188 73 183 93 6 235 145 209 233 197 178 155 66 215 111 208 165 237 177 194 233 21 154 25 230 86 108 37 125 159 167 114 217 254 114 157 245 18 60 103 94 195 163 8 59 48 149 198 138 233 181 197 172 95 0 33 36 153 176 58 156 40 96 79 40 92 114 79 207 184 174 235 72 164 43 240 1 98 115 212 102 67 226 142 95 27 79 171 26 242 239 159 12 252 117 89 50 204 126 26 157 196 45 134 45 208 18 252 157 84 81 35 191 98 0 197 9 49 208 225 81 202 240 251 213 5 46 183 126 180 96 166 102 30 2 96 151 175 32 211 22 237 119 218 32 174 215 18 179 136 203 233 80 138 124 247 0 41 211 146 149 125 222 156 50 174 117 160 13 169 29 29 116 23 44 34 14 143 46 27 100 10 136 235 159 152 91 59 147 82 171 17 253 144 193 164 9 92 205 111 24 38 208 132 191 185 185 35 19 109 206 139 36 158 78 16 199 94 85 110 153 103 255 93 64 83 208 101 244 16 84 244 63 142 2 174 0 186 102 4 182 176 128 8 251 44 103 127 79 66 49 56 23 80 23 157 229 48 213 136 250 178 80 88 10 73 123 67 63 4 123 238 128 192 10 58 242 157 25 97 191 174 185 67 23 245 59 250 117 142 150 180 36 42 10 194 1 191 3 236 130 126 64 8 247 6 52 203 16 215 173 222 160 9 179 52 160 62 179 156 119 213 221 146 121 96 202 91 173 88 98 81 211 16 253 123 165 232 200 96 94 195 107 29 121 187 232 182 187 19 198 170 115 108 112 202 1 60 216 74 149 125 95 25 57 162 249 110 18 207 140 164 226 73 154 71 210 44 32 111 111 92 190 76 242 189 23 3 196 167 123 184 65 148 196 236 189 28 125 10 196 36 74 60 166 82 131 131 51 196 35 7 196 1 225 172 123 47 156 229 203 135 252 205 58 7 87 116 101 102 209 118 69 77 200 211 178 196 111 250 37 235 184 39 194 234 120 239 150 42 198 26 29 198 163 176 7 60 225 86 59 105 61 219 29 180 207 15 12 137 164 212 47 9 169 119 114 255 202 64 203 22 92 71 194 74 184 138 48 157 41 61 71 11 9 97 210 191 38 152 190 135 107 56 218 134 188 158 219 41 33 197 163 92 39 23 195 253 131 130 62 144 249 207 144 53 124 47 238 216 151 23 208 168 11 78 173 202 186 69 5 78 195 166 165 98 239 47 39 197 76 193 184 127 23 180 30 208 223 110 249 102 232 52 72 210 206 63 48 61 106 19 249 87 249 12 90 145 123 58 246 140 90 111 38 209 76 149 249 194 122 69 121 209 226 150 48 239 250 51 235 71 150 177 190 45 11 31 72 81 149 222 56 57 246 179 16 238 96 26 42 245 149 221 248 128 77 230 143 230 216 81 103 81 4 198 92 182 65 6 249 11 3 195 246 180 104 181 255 62 27 234 184 79 120 94 253 221 241 203 110 159 176 194 43 193 125 251 220 220 227 234 245 37 142 146 56 229 248 158 123 41 69 174 171 186 107 239 17 79 149 238 212 2 202 174 191 1 201 248 69 134 56 242 194 9 254 243 4 180 238 150 10 23 165 13 11 29 181 184 187 62 3 246 201 247 109 60 172 119 176 100 159 156 137 71 234 29 27 141 100 9 145 196 54 112 4 176 225 95 159 226 131 18 1 140 86 102 226 148 121 141 250 231 243 5 30 16 245 203 173 9 95 204 42 81 134 156 42 62 52 106 113 149 241 52 88 88 129 55 114 223 174 170 110 42 72 171 63 118 105 122 123 14 253 229 1 100 130 3 223 96 13 37 115 248 142 10 208 1 84 82 98 69 212 53 214 213 166 117 52 161 208 145 78 69 71 60 94 38 179 13 235 190 115 120 236 52 225 253 48 48 215 159 253 237 114 152 248 144 21 75 68 184 177 122 238 86 68 185 137 191 160 35 21 255 110 75 38 112 114 118 66 140 17 7 138 0 16 58 156 1 158 21 185 227 149 156 35 232 253 69 201 86 210 171 38 204 6 134 103 213 202 219 204 190 10 112 80 165 54 131 140 211 72 187 217 76 3 95 181 163 120 198 104 19 207 15 231 204 68 18 248 139 112 149 151 109 202 196 152 5 109 219 143 172 28 38 237 24 131 43 107 49 191 38 172 31 33 181 29 168 47 213 33 185 236 13 107 66 90 233 170 71 60 170 108 53 32 60 60 114 157 104 14 55 218 75 222 162 79 7 147 7 208 184 41 136 199 170 15 229 193 201 206 149 44 88 236 21 94 230 16 128 218 126 102 96 207 31 69 195 226 107 16 146 45 163 90 31 136 211 77 253 7 74 76 20 196 77 215 244 222 13 175 106 193 214 59 81 168 136 43 171 97 75 91 241 80 127 250 167 183 242 235 50 53 86 107 238 140 242 245 124 167 151 98 89 219 214 85 181 109 112 214 130 84 14 61 203 65 50 82 71 221 110 178 46 81 212 117 75 12 173 13 83 192 110 113 117 174 231 124 50 36 190 143 111 68 28 126 200 6 166 170 40 129 175 106 150 102 171 176 82 205 231 233 33 52 120 36 229 196 114 119 112 215 90 158 154 184 221 230 145 169 193 74 113 43 29 219 21 121 197 101 44 86 9 79 143 8 159 195 210 165 221 15 24 141 43 75 44 56 185 60 206 50 109 121 75 99 32 204 81 148 9 219 0 47 121 8 68 70 201 149 99 215 145 12 210 79 27 222 77 76 24 74 38 167 145 128 222 178 32 7 242 190 95 92 247 225 161 220 233 246 224 227 193 228 247 54 69 36 17 158 36 125 98 214 66 18 21 167 81 159 133 82 161 0 175 46 57 243 232 146 38 30 203 245 19 84 118 84 26 20 246 213 218 82 255 169 202 122 224 54 204 179 183 118 6 97 225 154 237 237 181 244 162 200 114 19 130 173 117 48 249 39 176 201 150 84 87 139 101 232 220 117 121 116 30 59 200 233 222 232 60 88 114 200 6 251 189 133 54 121 94 144 136 102 40 194 129 9 210 68 187 99 240 172 126 108 34 104 143 160 140 96 77 186 134 215 249 192 148 146 86 63 152 61 114 216 70 10 195 251 217 155 117 243 4 34 3 35 44 199 5 143 212 74 73 158 89 233 36 30 223 132 10 136 139 255 93 133 243 232 131 178 210 89 59 160 1 32 49 32 162 30 208 189 158 237 87 137 83 198 47 29 134 161 124 219 159 157 242 118 21 163 233 181 39 70 180 115 205 238 47 235 238 54 152 50 211 146 160 5 220 53 193 197 113 50 209 192 60 225 216 178 149 132 31 140 62 42 137 115 81 212 38 12 118 215 6 247 89 129 75 153 92 255 130 31 137 126 52 191 202 145 183 65 92 211 74 191 129 205 98 169 117 26 62 11 164 200 193 19 26 2 129 206 59 236 28 50 180 207 203 97 177 118 57 44 81 216 149 214 86 247 229 27 34 7 158 113 223 211 114 142 253 93 106 42 225 196 52 6 219 107 190 45 89 88 4 122 91 218 38 90 39 111 189 211 62 228 