P3
50 50
255
134 56 227 78 183 178 139 80 1 30 168 26 134 39 6 211 32 77 248 23 72 55 84 239 55 74 192 0 74 122 44 2 171 96 160 116 46 141 56 142 121 31 109 120 104 146 149 185 176 216 173 242 194 171 87 204 242 34 31 47 216 130 2 181 246 87 49 94 156 196 18 133 9 24 136 18 211 161 116 242 137 197 124 196 150 78 11 213 104 6 152 79 210 132 44 173 175 69 30 114 201 255 33 27 249 49 130 82 143 255 170 100 243 61 234 245 141 202 120 243 227 31 180 200 1 39 176 212 30 82 240 26 124 229 110 57 144 148 225 159 99 82 63 249 56 104 129 237 111 196 166 12 169 148 250 2 45 20 152 16 139 164 46 189 127 30 0 200 23 102 48 96 24 67 60 151 159 109 200 21 4 231 158 9 3 142 243 102 30 243 236 75 61 102 96 194 152 83 224 174 214 210 244 255 118 121 168 40 111 116 71 211 19 216 103 211 57 53 37 90 155 107 178 108 125 190 15 147 144 44 20 213 21 253 183 227 69 157 139 147 241 167 135 144 102 66 9 80 147 176 26 71 110 36 244 91 147 212 194 151 46 80 166 35 28 18 0 116 77 86 238 192 109 44 15 181 195 203 141 106 89 40 90 150 93 199 185 0 199 209 1 54 60 104 157 130 50 55 88 26 86 77 216 151 42 43 103 168 243 27 250 8 210 196 107 173 49 252 10 67 96 221 84 216 128 27 2 217 161 148 70 61 39 41 81 0 114 205 24 211 190 219 88 18 71 173 215 246 177 106 238 12 168 31 68 229 196 18 220 15 175 83 82 69 137 147 97 227 139 57 169 157 235 179 175 111 0 10 38 215 167 186 109 67 229 192 88 197 206 244 51 14 165 153 4 154 68 51 17 40 190 152 162 109 68 74 8 9 69 4 222 186 217 147 143 208 96 231 25 225 102 106 16 189 203 145 229 164 32 176 104 183 83 18 140 173 143 73 106 199 94 195 137 6 17 158 93 155 97 189 13 159 86 28 122 4 104 96 124 204 229 179 110 120 146 206 238 196 149 87 222 145 146 110 174 35 21 131 222 140 48 106 190 104 101 177 121 203 197 49 81 120 90 227 44 84 195 245 80 26 30 29 107 79 43 46 214 121 173 233 26 140 20 21 180 165 90 210 21 250 43 42 237 17 72 233 169 49 45 174 58 23 242 67 25 233 111 42 136 112 163 120 26 129 87 231 117 188 254 38 87 122 224 115 215 0 119 108 238 249 25 34 53 35 216 112 240 72 167 139 76 112 190 217 229 85 63 7 139 23 25 86 70 49 44 53 151 172 175 21 1 146 207 121 200 166 153 76 249 82 26 120 170 225 197 180 131 238 21 157 126 28 115 9 234 8 89 152 182 124 184 140 236 230 151 218 124 8 253 128 59 240 18 26 43 43 129 176 253 54 32 211 212 53 211 232 76 231 174 195 187 218 89 120 183 219 185 109 216 177 204 180 190 11 213 152 86 182 186 118 90 19 170 207 23 201 2 154 115 183 114 223 46 45 92 129 104 91 124 92 100 9 206 143 139 137 172 27 180 234 55 174 162 111 249 185 206 63 201 200 103 94 238 19 152 220 135 80 9 77 42 204 168 121 203 186 169 84 223 203 203 48 194 255 222 49 86 186 130 1 238 26 49 198 106 136 128 81 163 141 161 152 9 231 45 103 138 221 32 82 182 207 38 238 33 17 21 65 9 250 186 118 57 55 216 213 45 101 110 243 119 224 57 38 98 213 122 60 212 159 249 109 121 80 74 141 29 141 79 135 90 160 254 6 116 200 100 117 129 211 234 42 205 239 216 222 124 190 23 97 113 168 59 139 111 117 193 118 126 27 148 234 145 212 214 25 101 116 222 141 172 250 125 94 107 101 134 168 161 201 141 60 41 161 238 150 225 103 18 16 12 98 237 85 245 192 203 23 214 228 77 5 247 1 174 247 26 232 75 108 23 30 99 55 196 50 27 117 23 77 197 194 143 11 97 173 207 137 100 105 141 192 185 197 170 17 6 93 162 32 48 18 39 230 33 185 9 2 201 16 89 80 98 246 206 189 249 219 103 90 42 117 82 175 43 180 13 81 12 249 203 183 60 131 25 73 80 41 193 186 0 79 239 152 114 19 146 33 188 199 5 89 164 164 239 89 169 188 104 234 72 49 93 82 120 165 53 110 119 241 180 1 200 26 32 76 125 129 163 223 178 89 241 174 90 94 42 103 62 196 2 3 66 110 31 156 234 97 195 126 30 120 170 128 42 89 54 149 9 167 201 158 227 122 114 130 212 12 205 129 239 181 36 197 131 25 218 58 156 160 10 160 205 38 107 223 45 244 119 154 160 239 204 6 88 16 210 253 155 20 158 78 198 117 22 88 146 152 86 215 150 72 83 253 13 99 190 197 218 211 44 132 201 192 115 192 24 4 87 70 54 224 102 119 202 237 32 227 247 85 91 25 222 66 230 188 101 151 109 218 55 223 156 122 13 130 135 116 43 63 74 134 45 214 236 163 3 5 138 142 59 182 177 168 126 119 11 7 94 42 62 199 79 254 17 165 242 158 209 201 154 168 243 228 9 96 250 123 122 166 155 131 229 37 31 45 126 206 10 3 126 133 250 52 39 25 209 44 2 122 22 104 108 38 153 137 80 229 86 167 54 182 156 231 125 9 111 80 228 46 42 218 80 14 105 200 201 25 37 56 197 127 33 249 169 163 133 156 141 205 201 206 63 30 213 229 139 202 103 184 186 129 180 180 89 46 82 44 60 228 85 241 194 21 185 35 89 6 0 70 69 127 27 152 158 199 142 162 152 208 208 14 8 174 240 184 35 77 126 8 136 100 169 126 129 165 165 142 133 55 80 175 2 101 20 175 90 152 15 73 43 130 113 249 212 157 38 15 53 212 182 3 182 127 105 8 138 149 174 227 53 29 189 254 75 230 124 184 123 120 159 0 205 74 20 34 40 54 158 224 23 41 192 197 204 31 220 182 102 79 156 202 111 162 145 92 169 106 26 94 10 81 136 239 5 143 127 48 11 97 159 84 82 182 100 247 213 43 75 177 156 57 55 234 61 173 18 240 163 89 183 70 14 10 16 64 91 186 123 204 134 6 115 147 109 226 108 65 214 139 254 32 180 189 70 236 166 39 138 227 193 28 27 27 143 139 128 24 87 49 208 158 159 13 96 196 240 20 158 74 217 39 61 44 54 66 147 119 179 246 63 92 139 25 14 131 150 188 32 162 130 93 70 77 96 94 175 16 99 182 196 187 229 231 80 253 171 48 228 52 106 3 122 132 138 185 88 38 41 133 55 3 99 166 165 130 209 225 168 158 79 47 164 59 3 179 126 186 155 238 2 203 213 54 130 130 69 100 192 174 83 206 15 102 131 117 180 228 249 127 146 151 60 231 7 115 58 115 17 140 140 230 181 227 252 119 161 127 68 131 16 192 25 127 238 241 104 48 60 28 224 30 183 34 176 70 180 10 146 15 79 154 8 127 196 36 229 175 29 163 16 124 14 7 133 128 29 204 156 65 5 209 142 167 93 104 53 180 117 169 19 111 129 13 150 33 249 56 154 196 63 21 48 185 131 40 158 185 228 32 167 14 215 172 12 3 205 144 82 153 16 248 198 123 238 12 191 52 26 196 35 160 79 254 44 160 54 206 108 18 138 21 15 1 122 85 97 24 79 195 144 93 78 158 178 28 224 192 9 32 240 115 134 41 149 133 141 155 241 159 248 116 89 210 94 128 181 115 149 208 42 41 117 104 247 68 223 56 157 80 254 78 67 234 205 73 88 211 218 17 122 67 73 197 151 128 27 245 82 174 177 18 168 233 139 34 211 145 86 184 110 229 38 36 219 212 0 231 226 15 155 106 154 99 103 239 141 70 207 199 23 176 187 197 15 44 90 244 169 46 30 133 155 167 8 11 127 215 37 235 121 98 89 13 25 167 91 216 131 77 1 94 205 30 190 211 168 25 105 68 67 194 63 133 108 189 44 108 249 155 70 60 102 244 154 100 191 182 44 106 192 188 57 34 60 163 191 35 187 217 64 123 103 246 194 162 41 80 26 173 15 201 106 196 241 236 233 214 84 57 226 139 142 188 0 123 43 229 200 157 144 147 103 2 222 114 174 195 25 135 91 56 138 9 154 106 97 115 203 203 159 215 134 37 51 117 220 209 99 140 224 41 110 112 103 63 112 221 11 208 133 139 118 115 49 2 221 22 0 176 202 171 105 57 31 31 248 14 88 140 173 65 16 175 159 152 198 156 228 224 226 176 181 131 243 200 206 93 59 176 20 204 109 223 122 6 181 97 37 176 249 20 207 172 95 23 105 50 15 128 4 34 58 77 241 152 91 158 39 193 188 33 230 238 60 205 154 231 81 211 2 130 73 209 145 116 213 73 21 102 199 83 150 76 27 142 129 242 52 92 6 215 105 79 190 63 192 222 145 132 249 93 215 173 207 44 189 65 122 46 234 94 120 124 99 5 141 91 172 184 9 108 49 71 73 35 228 231 128 122 38 132 184 231 235 88 19 139 25 189 87 172 50 63 169 101 51 246 153 156 188 19 95 53 112 184 100 133 159 13 5 10 35 144 147 89 135 172 158 87 111 142 115 172 51 52 227 117 206 198 70 57 247 42 192 31 141 211 195 94 56 217 213 244 78 79 148 155 243 209 247 249 133 92 214 23 55 98 173 20 251 30 157 27 166 38 179 146 78 63 109 148 247 116 122 162 111 106 194 149 119 238 166 215 35 208 137 211 132 244 143 170 132 166 164 40 16 46 193 246 125 164 106 17 36 6 124 122 80 136 37 48 91 43 52 91 19 145 147 202 98 16 17 159 47 5 101 73 127 107 112 179 224 172 195 187 7 182 97 230 184 82 198 82 230 177 40 236 28 72 252 226 27 223 188 92 197 228 232 103 57 4 75 49 64 253 127 124 232 173 179 77 110 111 172 228 97 168 10 241 5 157 205 5 246 136 23 71 13 234 51 104 135 34 215 217 100 63 166 59 14 19 249 23 59 136 223 207 20 56 99 212 151 55 13 26 58 51 171 201 209 192 80 54 177 237 158 17 22 27 65 224 194 15 188 171 231 69 104 249 71 135 185 252 154 191 196 9 48 10 254 75 215 13 71 183 255 140 39 66 28 56 87 82 76 201 131 115 58 77 78 76 66 192 151 209 214 220 250 186 32 50 154 51 232 122 30 213 185 40 250 213 63 64 240 123 244 106 214 214 252 73 153 175 76 9 130 187 18 55 184 20 81 214 7 234 204 175 223 118 38 232 160 48 71 216 20 66 2 26 61 60 244 224 82 9 175 138 4 34 24 120 5 1 13 28 203 217 75 83 146 132 143 245 160 189 252 170 204 143 189 0 65 13 235 187 128 68 177 109 164 110 174 70 234 105 154 44 112 103 45 14 61 230 60 118 130 227 38 94 31 74 110 69 105 178 169 130 43 71 155 215 235 7 157 73 110 50 65 47 126 251 57 138 234 132 117 148 207 9 140 156 22 92 93 16 62 145 246 220 91 250 181 242 95 86 172 42 153 69 74 77 123 255 56 108 160 70 130 119 14 153 247 11 184 171 210 138 71 19 154 113 25 69 70 230 138 193 165 145 115 138 253 173 241 218 243 95 104 20 170 70 199 250 47 83 13 32 21 219 12 160 92 234 108 16 152 219 244 177 78 37 5 233 162 120 103 244 47 9 73 214 55 42 130 148 252 29 29 163 109 42 21 161 5 239 93 67 241 248 35 143 113 143 86 75 128 213 102 181 183 18 75 116 111 74 200 207 38 17 241 29 36 159 235 124 93 39 243 198 154 101 161 193 212 119 110 150 224 237 117 133 82 35 118 214 155 207 32 19 116 214 144 116 128 100 21 155 44 59 54 129 219 75 246 177 64 131 86 180 10 232 28 204 199 228 211 229 2 224 19 200 175 21 2 146 202 158 27 100 58 210 46 93 251 210 168 197 124 94 21 139 70 237 227 242 223 252 105 135 238 166 40 86 159 117 80 93 73 120 134 65 79 149 228 64 68 33 65 103 82 174 179 5 220 36 83 95 98 20 64 165 165 72 231 37 12 159 129 191 71 24 220 153 50 44 95 20 252 97 73 254 136 28 57 9 19 182 243 123 24 211 97 40 112 239 216 157 190 58 157 159 10 166 168 212 172 62 167 191 108 185 70 242 231 79 174 126 53 203 75 175 200 226 211 246 151 195 132 39 124 239 173 228 219 75 111 89 133 115 197 43 220 82 194 170 55 240 26 78 136 138 228 97 60 232 158 249 98 235 114 41 16 102 183 120 2 46 187 146 133 117 192 62 147 83 68 144 64 166 134 96 85 28 69 251 58 142 203 23 25 144 42 13 64 70 198 66 199 121 19 230 115 233 160 226 219 229 85 11 201 26 249 156 227 169 246 227 139 124 97 58 3 217 53 57 213 55 223 42 114 81 0 189 25 122 110 254 250 48 124 131 156 243 123 234 124 88 128 131 247 89 104 73 105 239 26 23 151 227 12 24 74 224 9 128 61 206 49 121 57 91 65 96 127 218 20 50 102 81 106 65 69 205 233 44 147 249 97 13 77 239 84 244 152 78 182 149 168 141 241 61 224 143 44 11 59 119 205 92 234 189 60 135 63 130 234 203 201 32 147 133 193 6 192 166 164 195 143 101 34 96 182 49 55 243 198 234 152 113 173 80 80 196 127 188 171 29 118 14 83 140 55 230 185 206 86 23 182 102 29 88 115 239 137 61 134 176 150 102 93 113 188 247 224 141 186 71 82 73 146 221 120 100 213 152 254 239 32 45 22 95 231 215 98 225 113 73 20 237 36 232 84 30 3 55 226 65 117 146 252 172 72 32 130 209 245 3 88 18 38 209 12 215 117 72 184 222 119 61 42 211 249 214 67 33 137 249 157 7 57 4 112 238 159 191 183 250 32 143 142 223 111 236 223 246 80 20 61 144 162 1 16 138 156 153 243 33 87 38 90 8 140 5 120 184 160 162 96 8 221 164 106 253 3 100 216 227 255 164 185 156 250 126 14 57 149 154 44 199 115 164 97 107 249 253 218 178 81 177 196 34 181 170 178 21 234 35 63 199 10 95 244 173 135 154 108 8 109 64 181 187 231 93 250 89 5 84 95 131 188 213 45 113 47 9 47 206 44 15 92 201 250 172 181 105 82 62 113 32 171 242 88 164 187 55 109 250 58 115 207 211 233 244 225 28 211 41 169 209 210 18 118 18 86 245 198 120 98 83 102 169 215 26 219 42 245 28 1 117 31 192 242 76 222 247 41 76 41 114 232 197 228 19 214 201 166 161 237 131 191 191 147 202 122 31 7 246 159 243 255 243 60 164 144 148 165 199 77 41 186 77 179 83 104 249 197 23 115 24 243 50 114 108 64 172 27 105 164 176 192 164 175 155 26 136 112 83 70 74 149 218 13 32 211 35 104 174 137 36 67 193 160 44 130 64 181 119 66 96 122 0 97 22 89 150 64 210 91 50 199 106 73 136 170 84 17 220 235 25 106 23 161 6 187 26 247 37 57 82 119 108 80 140 137 51 69 11 54 236 25 216 50 14 176 90 26 82 51 38 250 34 178 24 18 78 14 163 218 2 22 101 67 245 240 255 64 226 187 35 133 60 114 239 142 30 19 121 228 129 1 171 156 177 167 81 32 2 95 112 50 190 146 217 45 99 32 255 142 11 2 6 180 44 46 28 228 129 186 12 144 72 69 16 217 174 147 231 82 136 119 40 7 67 246 214 190 30 169 52 124 150 99 219 75 34 20 9 59 33 237 60 167 17 197 0 185 1 188 5 48 73 30 116 97 120 138 131 124 142 83 72 17 108 38 202 211 136 237 94 155 229 244 49 176 67 74 33 69 147 107 209 67 173 27 252 73 69 149 9 241 27 229 224 86 115 147 253 211 197 129 194 13 181 22 18 51 69 156 27 132 74 231 115 18 29 56 103 198 146 97 144 165 46 41 167 81 148 241 153 211 65 152 222 151 121 157 7 184 129 131 151 127 15 122 20 38 255 59 94 225 71 52 63 31 45 229 66 12 184 138 201 91 100 250 90 68 25 207 58 200 94 199 61 60 203 106 220 5 188 237 136 161 77 87 62 231 130 226 92 143 197 164 179 244 150 110 221 25 126 245 208 234 68 47 180 197 100 0 242 57 189 22 142 14 138 18 182 133 147 232 155 224 165 136 127 37 63 190 15 32 142 86 244 167 155 133 165 34 196 132 127 74 105 126 23 48 231 172 207 129 202 191 167 9 62 126 86 119 199 176 154 96 50 60 204 134 204 143 183 89 209 62 170 190 39 236 204 16 76 111 176 100 142 46 41 18 122 205 96 113 150 13 35 225 83 237 128 15 61 22 147 116 117 117 156 31 97 42 84 181 162 161 130 182 70 254 201 1 63 191 196 155 20 156 85 172 215 178 57 202 87 225 224 122 150 115 124 244 126 254 89 39 207 139 108 253 92 247 46 224 119 154 171 125 170 39 213 200 168 211 31 64 130 186 71 116 30 126 115 198 230 49 128 111 189 117 151 195 55 225 1 182 9 167 60 160 190 116 78 61 172 152 89 248 39 103 112 105 244 223 169 28 0 139 115 148 82 166 42 143 63 132 233 140 221 46 160 139 186 77 102 20 205 73 16 122 172 177 2 97 0 222 69 126 54 211 218 158 120 104 78 234 220 168 143 105 219 119 254 198 4 120 197 84 241 45 107 79 123 96 166 101 42 194 112 116 239 211 92 150 22 1 43 91 118 20 154 85 235 201 127 218 6 189 20 5 2 141 147 254 250 60 3 123 90 213 81 135 148 81 162 131 20 186 232 106 117 145 179 89 245 110 75 78 38 230 251 47 231 177 175 15 147 12 194 174 120 93 17 62 139 22 84 109 89 219 174 159 65 231 130 123 225 172 137 170 206 185 33 219 136 225 232 11 173 154 138 3 108 163 215 34 61 234 25 92 207 172 164 131 66 222 174 197 151 204 97 119 101 0 47 17 205 101 102 121 175 172 4 132 30 239 204 186 18 148 153 89 93 117 243 157 225 61 224 63 255 21 252 59 83 129 204 215 158 132 80 225 3 11 215 56 119 137 23 142 115 222 125 107 235 125 194 117 132 206 191 240 2 209 130 129 255 5 161 55 227 136 206 203 16 127 172 39 93 184 226 38 198 142 109 155 98 13 58 148 149 87 244 224 134 70 27 206 211 83 86 56 132 183 10 192 62 208 43 90 185 197 82 11 116 109 16 240 168 109 131 129 122 161 38 23 116 190 237 172 54 53 146 226 105 90 41 71 245 197 251 216 116 248 145 196 230 67 15 114 166 229 196 196 157 116 254 158 181 127 35 162 144 113 253 62 123 184 86 233 157 39 197 169 116 153 199 217 131 216 17 41 68 189 37 230 100 152 36 124 47 209 227 57 74 208 64 83 160 27 183 45 158 190 48 214 163 240 27 210 178 243 191 30 107 60 207 110 57 212 63 185 204 254 85 247 202 26 3 42 193 201 116 155 97 82 229 102 232 69 182 56 221 94 193 88 1 171 234 228 131 241 247 94 115 77 163 103 121 23 237 201 199 11 182 187 76 171 139 97 42 223 192 147 107 223 190 223 239 82 157 209 169 184 246 113 12 5 242 14 191 142 167 58 152 41 165 22 200 144 203 208 83 7 96 105 196 63 95 188 30 121 17 188 21 238 225 253 126 111 109 118 5 73 217 133 30 107 104 51 62 203 77 186 74 5 190 68 80 69 75 246 117 104 110 45 46 94 99 7 179 211 57 38 177 14 42 176 63 25 40 154 20 34 184 39 247 33 3 171 118 187 42 149 219 102 219 172 92 207 34 153 146 121 129 166 45 166 66 197 229 122 12 212 180 94 181 31 66 163 87 39 161 103 166 162 58 189 128 194 7 8 198 186 3 168 107 127 223 217 202 203 247 215 61 104 132 71 235 171 19 210 225 63 54 19 101 35 121 179 134 246 151 210 248 115 238 169 31 56 49 110 106 203 93 120 226 222 238 164 3 210 82 247 202 123 158 133 15 35 128 145 21 209 116 245 96 203 59 197 198 89 138 47 201 204 255 165 36 191 88 63 164 157 231 90 57 99 65 134 77 167 55 159 84 218 7 57 165 202 211 65 136 106 81 226 144 214 197 166 43 146 44 222 119 18 186 67 87 128 135 221 199 185 134 36 108 153 182 102 111 120 156 104 140 244 240 80 102 241 151 194 30 223 209 74 35 60 180 250 76 89 217 84 36 96 85 106 133 150 234 67 104 222 127 129 251 127 206 65 244 38 93 67 37 47 175 75 81 32 187 198 63 118 157 177 12 165 140 183 197 90 12 153 54 3 100 211 252 145 83 125 226 124 255 111 106 8 46 168 169 200 184 241 88 96 61 189 41 142 19 84 87 108 130 48 129 239 52 167 184 180 231 203 215 252 101 143 18 245 182 43 210 59 148 193 193 158 31 64 32 38 210 137 97 84 182 208 242 171 213 69 87 111 242 244 123 173 119 234 72 123 175 154 117 129 53 127 159 184 173 2 156 114 177 157 12 155 14 65 48 62 49 245 0 74 220 193 119 151 30 202 50 36 129 190 57 163 133 114 29 55 77 202 67 124 153 218 127 200 244 74 228 176 47 255 219 206 13 247 115 194 64 117 248 119 148 95 199 168 107 228 96 162 105 97 189 75 112 134 227 99 207 181 182 10 182 170 17 130 238 97 22 55 198 52 195 252 81 69 198 152 206 27 147 129 104 144 179 231 32 234 95 244 7 72 77 83 176 64 202 239 229 198 9 253 153 79 187 60 30 55 223 123 152 96 220 93 178 29 205 89 143 78 28 4 4 204 82 147 4 7 45 155 91 237 244 28 159 14 7 190 100 254 186 90 176 251 99 188 175 208 178 168 167 249 65 26 45 8 108 210 154 72 99 16 185 159 125 157 194 185 208 10 140 98 254 60 254 52 81 41 199 115 11 220 78 53 247 191 236 198 68 25 90 74 147 214 101 164 79 135 233 151 61 169 252 43 84 42 106 83 206 41 98 204 127 254 110 72 102 122 168 204 130 111 44 87 230 115 201 196 16 226 252 241 119 34 30 33 99 43 220 159 1 70 232 165 183 20 238 123 181 211 202 227 205 221 248 181 132 113 75 199 105 182 226 15 165 253 89 12 212 71 60 97 19 7 193 196 90 41 182 22 13 82 184 211 205 106 166 173 148 88 85 116 1 12 133 57 240 195 20 179 78 134 114 226 44 244 85 241 17 66 174 97 149 128 219 100 43 30 30 135 63 174 78 148 129 235 204 183 128 251 185 223 122 241 102 103 114 150 12 246 132 105 190 164 118 228 155 94 143 1 72 139 172 253 158 239 144 92 159 208 124 45 175 88 255 143 1 59 16 116 79 154 90 165 206 38 215 7 97 136 160 28 12 1 4 204 172 77 215 102 230 206 12 226 94 230 135 105 41 165 44 23 132 164 60 255 198 48 225 111 147 171 7 118 83 48 110 164 226 118 253 17 137 247 90 160 46 81 183 133 199 236 239 5 21 221 209 125 142 10 187 166 155 143 108 23 3 97 19 12 167 49 171 101 113 148 139 242 135 96 57 237 196 89 128 200 104 13 194 42 14 252 143 52 223 252 117 8 6 220 26 140 99 72 137 107 132 236 202 93 209 221 181 169 6 52 7 232 231 252 182 11 47 78 130 159 201 186 205 80 66 233 172 172 127 129 62 42 171 73 61 107 116 142 210 191 119 197 174 235 248 113 86 42 215 71 190 113 191 144 26 247 161 208 241 245 97 165 115 170 207 241 12 163 216 59 57 57 254 83 155 91 5 53 74 142 239 48 107 49 43 72 5 6 10 216 16 238 114 124 207 244 214 45 96 141 101 174 146 30 130 40 246 191 117 17 57 63 96 81 176 104 116 168 53 132 100 74 50 32 26 205 251 15 170 69 97 178 132 174 132 119 237 138 232 160 176 202 203 70 16 242 182 157 2 121 83 121 153 110 126 17 194 98 158 3 49 129 54 153 155 2 183 75 38 194 153 133 30 43 169 170 233 91 165 88 61 130 6 238 144 140 29 75 208 1 97 217 85 41 8 203 20 115 212 162 21 23 48 246 39 251 123 115 210 212 164 34 141 141 247 233 49 236 54 86 174 115 236 152 252 132 254 206 85 201 131 133 162 211 213 123 51 1 232 169 178 164 219 129 90 96 205 117 100 214 242 184 194 127 230 72 16 219 65 44 200 204 107 250 181 60 178 157 170 6 153 85 115 20 115 255 12 197 49 151 17 145 121 251 118 239 248 242 120 118 248 108 211 67 53 12 54 156 236 227 244 210 54 127 252 108 148 36 11 129 203 89 32 102 242 166 49 138 201 157 28 157 76 23 224 248 136 192 13 57 174 214 121 45 102 45 53 244 101 119 191 95 66 194 121 157 133 66 90 23 2 81 228 152 101 180 86 177 13 32 34 92 30 252 161 223 209 105 6 243 15 128 145 38 63 218 5 126 92 86 91 95 74 22 184 174 106 203 157 55 108 51 93 76 100 224 213 175 32 58 87 179 185 199 231 157 105 170 170 80 156 106 155 42 74 245 128 41 131 229 29 82 76 1 167 83 169 7 123 103 251 169 16 122 140 213 42 142 105 57 81 93 112 7 130 63 169 245 36 79 218 137 61 201 85 147 230 183 21 251 253 205 9 188 25 145 176 49 195 191 230 144 227 235 254 180 120 104 16 31 140 105 148 63 104 102 48 240 4 193 207 67 193 170 243 125 90 64 76 99 24 248 137 181 70 67 110 249 229 107 39 121 161 190 220 143 3 239 133 32 231 185 0 103 49 197 96 244 188 206 137 244 147 3 250 178 100 173 233 94 49 17 149 14 73 152 216 2 119 45 251 44 121 231 207 239 179 232 249 40 37 133 142 107 155 167 224 143 35 112 151 108 196 34 3 227 109 61 176 31 44 232 59 27 160 146 101 100 177 217 102 33 126 171 132 80 151 171 227 82 109 214 159 170 7 102 24 2 246 246 141 110 138 232 237 245 70 4 233 78 146 97 78 231 176 137 146 44 241 216 172 5 41 37 41 160 96 165 125 114 202 11 151 120 250 244 184 195 82 131 132 51 190 72 90 131 162 103 225 133 16 246 227 175 63 166 95 215 56 166 217 59 211 196 245 196 226 214 68 140 172 88 94 157 157 86 49 252 59 141 152 230 92 205 48 89 150 161 103 214 248 50 213 102 247 105 208 219 171 84 58 88 60 203 158 19 151 83 123 90 101 66 224 212 61 36 57 10 24 94 105 37 6 17 25 249 32 65 79 67 190 55 66 47 234 35 109 30 20 6 226 165 7 207 225 217 27 196 169 202 172 36 142 77 204 11 76 255 53 149 155 134 129 70 3 26 158 170 242 69 124 56 12 230 8 124 194 124 94 118 38 161 58 61 253 213 176 231 22 125 30 173 219 43 94 75 38 32 64 166 86 16 55 177 161 37 82 145 172 70 110 0 88 152 171 239 223 69 28 111 33 125 195 209 56 187 188 12 82 74 184 96 192 7 173 57 74 104 204 86 198 189 180 42 233 182 229 131 92 38 119 105 18 6 12 73 218 189 3 83 48 159 238 32 89 179 70 152 175 185 94 19 57 107 150 190 126 4 209 65 155 255 41 158 148 33 225 92 232 185 154 230 104 39 202 46 72 155 107 149 119 31 240 15 44 216 125 130 194 136 87 112 197 88 154 214 77 213 42 84 138 56 235 141 161 234 53 209 182 71 130 250 74 163 106 147 200 138 210 64 90 76 96 89 1 185 50 217 229 42 207 119 234 193 93 18 131 241 21 82 203 64 245 141 210 75 180 231 52 11 251 190 241 88 210 69 120 171 89 110 5 40 184 14 45 220 88 60 184 67 84 249 174 13 42 23 180 33 183 83 153 227 98 197 45 178 151 122 82 181 119 95 85 216 205 96 126 17 68 210 229 232 216 14 136 54 139 95 155 45 89 31 31 152 109 28 182 100 149 65 182 96 244 114 124 65 247 183 3 233 138 157 181 233 139 217 128 68 126 47 45 118 131 146 237 180 134 141 53 118 182 225 204 51 56 112 35 107 28 89 228 235 144 101 205 77 83 162 191 190 109 77 18 4 30 245 44 191 20 222 82 238 224 164 189 182 171 32 241 95 37 143 74 160 191 241 216 28 26 176 109 44 191 130 243 223 16 144 3 63 127 216 180 214 253 208 177 113 181 76 143 36 251 161 93 142 127 11 124 94 199 76 177 22 220 150 120 16 67 171 155 190 46 67 4 53 244 174 207 237 191 186 164 194 132 215 68 63 57 121 97 28 66 190 179 5 44 81 72 158 157 142 28 195 139 231 233 20 173 134 64 177 47 51 217 66 170 121 40 59 83 4 48 94 115 78 156 129 23 123 12 145 8 129 173 215 253 139 12 122 16 160 44 69 111 127 214 171 84 206 48 8 55 116 145 42 66 68 148 16 5 219 107 241 107 203 118 129 236 249 20 111 5 67 186 50 229 102 66 5 106 31 133 48 75 145 43 138 151 231 194 60 94 58 14 199 173 181 160 73 192 247 170 252 116 184 18 255 251 176 197 89 211 180 78 59 249 35 167 133 90 128 79 140 138 96 156 26 184 135 83 183 226 78 118 39 69 72 93 52 24 36 8 174 121 213 180 175 168 241 172 35 115 87 98 136 241 21 190 243 115 137 182 84 184 198 31 250 96 56 195 90 163 140 179 12 67 202 223 22 191 196 227 109 202 180 36 185 251 33 28 89 198 2 242 167 171 38 78 125 173 211 107 248 6 174 110 123 25 218 246 247 168 100 244 106 71 223 189 166 17 75 93 84 153 60 46 56 36 56 170 183 21 96 126 150 168 82 223 4 227 79 33 219 202 153 134 35 211 31 84 216 153 92 42 236 212 125 147 144 137 194 220 176 126 38 35 188 241 66 177 174 137 111 138 73 141 43 65 158 84 190 17 213 253 29 42 42 96 14 73 54 67 141 139 112 210 110 131 243 73 69 138 130 244 131 86 201 89 225 207 229 180 2 29 39 163 83 6 21 35 55 119 178 187 97 96 0 247 128 197 194 24 34 19 134 10 210 176 227 150 132 213 0 217 52 160 85 245 201 101 182 6 63 70 141 88 5 3 103 215 164 19 178 198 162 243 196 180 166 190 32 172 220 254 245 173 155 193 232 89 70 240 19 241 112 221 78 129 67 27 173 88 34 146 74 187 141 210 68 219 69 168 7 4 177 239 206 22 129 169 103 57 145 79 54 205 16 101 125 160 225 80 219 100 65 108 18 96 171 90 13 101 248 151 33 4 203 83 147 254 44 128 90 252 115 41 39 128 104 5 163 28 168 76 247 226 75 201 146 27 195 49 38 60 7 179 244 21 242 208 74 76 229 109 74 10 180 38 236 244 192 230 71 93 96 180 12 185 134 208 83 85 159 255 154 70 186 35 10 160 237 14 253 232 244 152 190 203 28 239 143 15 96 47 241 203 209 51 31 211 59 170 220 119 5 109 110 109 89 16 235 11 133 182 179 185 161 42 62 167 114 44 24 187 143 9 41 206 194 111 58 23 177 126 181 231 190 34 172 151 43 161 29 191 130 112 117 169 52 75 82 6 128 132 141 223 150 156 120 206 253 16 100 109 50 117 103 15 146 199 92 174 121 255 42 37 172 227 74 159 244 34 131 80 12 160 248 99 189 15 101 51 72 191 166 189 4 183 121 86 72 4 132 153 139 81 154 164 202 184 58 132 43 216 88 237 223 40 96 46 76 138 121 101 108 36 7 239 112 107 115 35 170 128 46 64 169 192 243 163 166 151 77 62 31 148 90 69 193 195 206 42 139 55 58 204 49 230 143 236 190 186 222 224 126 228 97 139 27 116 191 140 6 38 140 182 24 127 15 192 122 25 73 62 194 60 50 208 94 173 70 154 54 203 64 244 141 215 38 98 40 148 133 198 179 16 254 212 96 193 1 199 209 211 217 82 56 193 233 218 189 35 53 226 32 199 36 199 159 2 132 173 26 72 206 185 117 251 171 129 62 129 184 192 143 153 134 79 54 239 230 80 20 238 99 172 195 213 15 193 124 13 131 84 55 186 33 205 19 144 156 163 249 231 187 21 124 18 89 27 4 237 177 156 44 182 216 225 104 30 139 74 235 159 43 63 200 15 6 106 87 118 216 35 218 29 146 44 96 231 89 159 234 228 210 36 205 36 157 103 87 201 31 202 181 96 133 87 20 114 5 248 7 85 103 234 41 72 197 111 3 192 143 195 48 252 209 82 190 223 185 40 216 255 84 169 162 250 152 130 101 9 167 223 236 215 82 223 46 147 220 68 45 67 1 112 29 92 55 141 201 144 52 11 51 232 176 79 122 18 108 169 1 252 115 135 206 162 160 233 48 36 96 21 165 27 185 140 250 45 140 60 180 223 23 247 175 171 189 36 5 83 10 181 49 116 242 89 117 94 89 242 121 35 217 73 52 238 191 0 15 150 86 201 72 115 105 214 149 113 3 145 11 98 121 140 61 153 170 187 168 180 134 225 79 185 205 72 162 101 25 181 164 192 31 155 77 245 50 143 45 97 9 252 83 234 193 24 109 146 37 22 49 75 46 158 251 14 198 122 183 39 209 146 1 211 110 26 139 12 122 10 191 164 87 206 166 145 235 63 9 136 235 211 214 205 89 16 196 73 75 71 58 221 239 126 110 246 204 174 202 97 74 47 147 97 117 112 204 255 254 235 88 162 130 88 96 223 15 33 244 146 229 23 245 46 121 99 50 81 192 191 